<?xml version="1.0" encoding="utf-8"?>
<!-- Generator: Adobe Illustrator 13.0.2, SVG Export Plug-In . SVG Version: 6.00 Build 14948)  -->
<!DOCTYPE svg PUBLIC "-//W3C//DTD SVG 1.0//EN" "http://www.w3.org/TR/2001/REC-SVG-20010904/DTD/svg10.dtd">
<svg version="1.0" id="Ebene_1" xmlns="http://www.w3.org/2000/svg" xmlns:xlink="http://www.w3.org/1999/xlink" x="0px" y="0px"
	 width="96px" height="122px" viewBox="0 0 96 122" enable-background="new 0 0 96 122" xml:space="preserve">
<circle fill="none" stroke="#000000" stroke-width="0.176" cx="47.863" cy="62.942" r="37.59"/>
<circle fill="none" stroke="#000000" stroke-width="0.176" cx="47.863" cy="62.942" r="36.179"/>
<circle fill="none" stroke="#000000" stroke-width="0.176" cx="47.863" cy="62.942" r="34.769"/>
<circle fill="none" stroke="#000000" stroke-width="0.176" cx="47.863" cy="62.942" r="33.358"/>
<circle fill="none" stroke="#000000" stroke-width="0.176" cx="47.863" cy="62.942" r="31.947"/>
<circle fill="none" stroke="#000000" stroke-width="0.176" cx="47.863" cy="62.942" r="30.537"/>
<circle fill="none" stroke="#000000" stroke-width="0.176" cx="47.862" cy="62.942" r="29.125"/>
<circle fill="none" stroke="#000000" stroke-width="0.176" cx="47.863" cy="62.942" r="27.715"/>
<line fill="none" stroke="#000000" stroke-width="0.498" x1="47.862" y1="99.49" x2="47.862" y2="80.222"/>
<path d="M47.862,102.322c0.972,0,1.759-0.788,1.759-1.759c0-0.972-0.787-1.76-1.759-1.76c-0.972,0-1.759,0.788-1.759,1.76
	C46.104,101.534,46.891,102.322,47.862,102.322"/>
<path d="M54.938,78.508H40.786v-6.17h14.152V78.508z M70.432,62.942c0-12.465-10.105-22.57-22.57-22.57s-22.57,10.105-22.57,22.57
	c0,12.465,10.105,22.57,22.57,22.57S70.432,75.407,70.432,62.942"/>
<line fill="none" stroke="#000000" stroke-width="0.176" x1="47.862" y1="12.722" x2="47.862" y2="18.013"/>
<path d="M47.862,13.074c0.194,0,0.352-0.157,0.352-0.352c0-0.194-0.158-0.351-0.352-0.351c-0.194,0-0.352,0.157-0.352,0.351
	C47.51,12.917,47.668,13.074,47.862,13.074"/>
<circle fill="none" stroke="#000000" stroke-width="0.176" cx="47.863" cy="62.942" r="44.891"/>
<rect x="3.347" y="115.638" fill="none" width="89.031" height="39.118"/>
<g>
	<path d="M45.554,119.149H41.89l-0.038-0.039v-0.111l0.038-0.037h3.664l0.038,0.037v0.111L45.554,119.149z"/>
	<path d="M48.515,119.821h-0.038l-0.598-0.598h-0.037l-0.598,0.598h-0.038l-0.112-0.111v-0.039l0.599-0.598v-0.037l-0.599-0.598
		v-0.037l0.112-0.113h0.038l0.598,0.6h0.037l0.598-0.6h0.038l0.112,0.113v0.037l-0.598,0.598v0.037l0.598,0.598v0.039
		L48.515,119.821z"/>
	<path d="M53.828,119.149h-3.664l-0.038-0.039v-0.111l0.038-0.037h3.664l0.038,0.037v0.111L53.828,119.149z"/>
</g>
<g>
	<path d="M45.554,4.333H41.89l-0.038-0.038V4.184l0.038-0.038h3.664l0.038,0.038v0.112L45.554,4.333z"/>
	<path d="M48.515,5.006h-0.038l-0.598-0.598h-0.037l-0.598,0.598h-0.038l-0.112-0.112V4.856l0.598-0.598V4.221l-0.598-0.598V3.585
		l0.112-0.112h0.038l0.598,0.598h0.037l0.598-0.598h0.038l0.112,0.112v0.037l-0.598,0.598v0.038l0.598,0.598v0.038L48.515,5.006z"/>
	<path d="M53.828,4.333h-3.664l-0.038-0.038V4.184l0.038-0.038h3.664l0.038,0.038v0.112L53.828,4.333z"/>
</g>
</svg>
